<svg width="20" height="20" viewBox="0 0 20 20" fill="none" xmlns="http://www.w3.org/2000/svg">
<path d="M5.83333 9.16666H7.5V10.8333H5.83333V9.16666ZM17.5 4.99999V16.6667C17.5 17.5833 16.75 18.3333 15.8333 18.3333H4.16667C3.24167 18.3333 2.5 17.5833 2.5 16.6667L2.50833 4.99999C2.50833 4.08332 3.24167 3.33332 4.16667 3.33332H5V1.66666H6.66667V3.33332H13.3333V1.66666H15V3.33332H15.8333C16.75 3.33332 17.5 4.08332 17.5 4.99999ZM4.16667 6.66666H15.8333V4.99999H4.16667V6.66666ZM15.8333 16.6667V8.33332H4.16667V16.6667H15.8333ZM12.5 10.8333H14.1667V9.16666H12.5V10.8333ZM9.16667 10.8333H10.8333V9.16666H9.16667V10.8333Z" fill="white"/>
</svg>
