<svg width="20" height="14" viewBox="0 0 20 14" fill="none" xmlns="http://www.w3.org/2000/svg">
<path fill-rule="evenodd" clip-rule="evenodd" d="M7.49805 7.81182C7.49805 6.42919 8.61719 5.30929 10 5.30929C11.3828 5.30929 12.4981 6.42919 12.4981 7.81182C12.4981 9.18984 11.3828 10.3098 10 10.3098C8.61719 10.3098 7.49805 9.18985 7.49805 7.81182ZM6 7.82564C6 10.0286 7.79297 11.8261 10 11.8261C12.207 11.8261 14 10.0287 14 7.82564C14 5.61806 12.207 3.82524 10 3.82524C7.79297 3.82524 6 5.61806 6 7.82564ZM2 14.0014C0.89844 14.0014 0 13.1027 0 12.0012V3.6455C0 2.53942 0.89844 1.64532 2 1.64532H6.43359V1.00009C6.43359 0.44705 6.88086 0 7.43359 0H12.5664C13.1211 0 13.5683 0.44705 13.5683 1.00009V1.64532H18.0019C19.1035 1.64532 20.0019 2.53942 20.0019 3.6455V12.0012C20.0019 13.1027 19.1035 14.0014 18.0019 14.0014H2Z" fill="#B2B2B2"/>
</svg>
